# xmcd
#
# Track frame offsets:
#	150
#	18270
#	35372
#	48070
#	63832
#	77992
#	91995
#	113257
#	123602
#	139425
#
# Disc length: 2064 seconds
#
# Revision: 6
# Processed by: cddbd v1.5.2PL0 Copyright (c) Steve Scherf et al.
# Submitted via: audiograbber 1.83.01
#
DISCID=78080e0a
DTITLE=Vern Gosdin - Alone
DYEAR=1989
DGENRE=Country
TTITLE0=That Just About Does It
TTITLE1=Take Me Home To Alabama
TTITLE2=I'm Still Crazy
TTITLE3=Paradise '83
TTITLE4=Do Me A Favor
TTITLE5=Tanqueray
TTITLE6=Alone
TTITLE7=Right In The Wrong Direction
TTITLE8=I'm Only Going Crazy
TTITLE9=You're Not By Yourself
EXTD=ID3G:   2
EXTT0=
EXTT1=
EXTT2=
EXTT3=
EXTT4=
EXTT5=
EXTT6=
EXTT7=
EXTT8=
EXTT9=
PLAYORDER=
